<?xml version="1.0" encoding="UTF-8"?>
<svg id="Layer_1" xmlns="http://www.w3.org/2000/svg" version="1.1" viewBox="0 0 1217.68 213">
  <!-- Generator: Adobe Illustrator 30.5.1, SVG Export Plug-In . SVG Version: 2.1.4 Build 3)  -->
  <defs>
    <style>
      .st0 {
        display: none;
      }

      .st0, .st1 {
        fill: #111;
        fill-rule: evenodd;
      }
    </style>
  </defs>
  <path class="st1" d="M138.23,123.63c-4.15-.66-4.4-.62-2.92-2.15,1.14.05,40.05.12,51.86.12,1.62,0,2.83,1.48,2.53,3.08-1.44,7.58-.65,14.33-.65,43.42s26.56,35.86,44,36.21c.55.01.68-.75.17-.95-20.26-8.04-22.75-33.31-8.26-47.26.08-.07.15-.14.24-.21,17.47-14.5,43.56-17.24,64.39-23.39,2.55-.6,2.38.16,2.37-10.19,0-.08,0-.16,0-.23,2.2-26.6-12.34-42.23-37.46-34.54-12.51,4.52-11.18,15.34-16.07,24.1-.17.31-.4.59-.67.82-13.96,12.2-24.56-16.44,11.95-28.17,17.83-6.26,48.13-5.98,59.1,12.92.08.14.16.3.22.45,7.5,18.51,3.49,9.65,4.67,53.01,1.16,35.2-3.02,33.61,4.81,41.99.2.21.42.41.67.56,4.26,2.46,12.26.16,15.03-2.17,1.53-1.38,2.8,2,1.46,3-15.26,13.52-38.85,20.72-43.41-2.19-.46-2.3-3.24-3.22-4.99-1.65-7.04,6.34-15.1,12.16-23.7,14.74-1.1.4-2.19.73-2.43.73-15.07,5.63-54.54,1.37-69.34-7.08-3.48-1.72-10.6-6.57-13.02-7.14-2.84-.51-4.91,2.08-7.34,3.21-14.68,9.37-30.72,15.27-48.62,17.51-42.15,4.05-84.31-6.54-107.38-42.9C-3.19,140.46-4.69,99.77,9.44,69.18,29.81,21.67,84.49,1.89,133.35,9.55c13.52,1.48,35.43,7.33,48.54,12.18.08.03.16.06.24.1,4.06,1.92,1.64-.71,2.49,20.25.13,17.49.11,19.06-.27,19.44-2.19,2.01-3.13-3.98-3.87-5.25-2.74-7.57-12.83-20.69-20.39-26.06C127.87,4.09,74.12,6.98,49.09,42.06,7.29,98.3,30.66,211.82,112.97,207.86c10.81-.38,14.15-.79,24.12-3.83,8.42-2.43,37.14-20.58,37.14-42.96,0-32.29-14.42-36.19-27.12-36.63-2.45-.08-6.45-.42-8.88-.81ZM1179.17,207.37c-1.65-4.7-.5-17.95-1.27-22.44-.4,0-.46.05-3.13,3.13-19.99,25.14-61.5,26.64-78.45-1.6-17.03-26.95-12.65-66.58,10.25-89.12,15.83-16.45,40.41-20.41,61.67-13.65,2.2.75,3.95,1.42,6.11,2.52,1.31.35,2.79,2.41,3.6,1.26-.96-6.65,3.99-49.64-4.73-55.07-2.07-1.54-5.51-2.67-8.33-2.75-1.93-.05-2.42-.29-2.42-1.19.72-2.49,3.2-1.56,6.25-3.3,10.44-3.95,19.31-7.66,29.37-12.22,5.23-3.12.8,37.55,2.28,84.5.02,46.42.12,85.01.22,85.75,1.05,10.17,7.75,13.02,16.79,11.77.47.39.35,2.22-.16,2.48-2.97.74-12.65,3.72-17.25,4.76-6.45,1.84-13.41,3.49-19.32,5.11-1.13.44-1,.44-1.48.06ZM374.22,206.91c-7.43-1.02-15.18-6.85-18.1-13.86-1.1-1.58-2.54-7.71-2.89-12.34-.57-2.77.09-93.47-.59-90.74-.22-.19-3.24-.28-9.39-.3-8.57-.02-9.09-.05-9.54-.5-1.1-1.42,1-2.42,1.96-2.96,46.32-27.63,38.29-69.58,39.6-5.09.21.24,4.44.31,19.71.31,17.46,0,19.5.04,19.85.4.54-.33.27,7.38.03,7.55-1.83.26-32.53.36-39.77.42-.21,6.56.25,70.15.31,88,1.39,6.11,4.78,12.44,9.32,14.2,12.47,5.45,23.83.25,33.27-8.32.42.27,2.13,2.11,1.16,2.79-10.41,14.06-27.33,23.5-44.93,20.44ZM617.09,207.02c-50.81-5.04-61.83-73.43-32.67-107.59,29.08-35.72,87.69-17.37,87.93,29.13-14.01.08-82.88.12-83.36.5-2.2,22.63,6.55,48.69,27.23,58.41,14.98,7.67,35.09,4.89,47.33-5.95,1.87-1.64,6.03-6.51,7.49-8.78.87-1.87,2.09-.71,2.43.59-8.26,22.03-32.53,37.17-56.38,33.69ZM958.72,207.02c-74.37-9.05-58.5-136.77,16-125.72,21.4,3.02,40.33,24.69,39.22,47.15,2.76.32-89.32.07-83.17.53-.36.36-.4,10.22-.06,13.2,1.59,29.35,23.51,53.22,52.88,49.26,12.92-1.99,22.3-8.67,30.23-19.76.43,0,1.65,1.32,1.65,1.8.04.46-.74.89-.75,1.31-9.68,21.91-32.35,35.56-56,32.23ZM426.16,204.51c-3.48-5.25,13.81,2.16,15.31-18.45.32-2.98.33-140.44.01-143.46-1.78-16.08-14.34-10.48-15.85-14.3.45-1.41,2.58-1.5,3.93-2.11,2.48-.84,5.08-2.09,6.7-2.51,6.27-2.62,12.19-4.96,19.29-8,.08,0,.97-.38,1.97-.85,5.13-2.37,5.42-2.48,5.82-2.15.75-5.73.18,93.17.49,93.19,4.28-4.14,10.99-13.21,17.76-16.98,14.11-8.89,35.53-13.97,49.13-2.36,12.83,10.95,12.1,14.65,13.5,62.9,1.82,34.31-6.17,49.32,15.94,53.06,4.34,4.92-53.45,1.15-53.39,1.89-2.33-3.65,8.03-1.83,11.06-6.49,7.6-4.41,3.6-58.87,4.52-80.09-2.63-35.55-49.25-30.93-58.25-2.31-.58,1.96-.57,63.78,0,69.31,1.42,11.03,3.82,15.74,12.74,17.14,2.3.3,3.12.7,3.12,1.51,0,.24-.18.62-.39.84-.36.35-3.09.39-26.69.36-14.46,0-26.49-.08-26.73-.14ZM723.73,123.93c.47,10.75-1.96,55.4,1.16,67.94,1.48,7.44,7.99,9.74,14.55,10.4,1.53,4.1-1.48,1.76-26.55,2.38-14.69-.67-31.25,1.81-26.46-2.43,10.95-1.06,14.58-7.35,15.04-19.16.33-6,.1-74.25-.25-75.5-.16-.56-.44-1.68-.63-2.5-1.58-5.83-4.85-9.09-11.74-9.49-3-.26-3.01-.27-3.08-.94-.12-.99.89-1.52,5.58-2.94,2.93-.24,27.61-11.19,31.91-10.85.01-.16.18,21.09.19,20.9,15.96-21.11,34.36-21.09,59.42-21.18,1.78-31.78,3.82-62.5,38.1-76,36-12.52,59.48,4.45,61.97,6.74,12.61,12.73-6.43,33.04-19.97,20.51-11.87-10.99.14-18.42.22-22.48.14-7.27-27.9-8.41-40.1.8-21.31,16.92-17.01,42.08-17.5,70.43,0,0,37.4.09,45.99.12,9.68.03,28.41-7.82,32.64-10.12.51-.28,1.13.09,1.13.68.2,19.47-.18,118.28.7,116.45,1.87,10.99,6.5,13.89,15.3,14.38.77,3.8,3.67,2.16-26.74,2.62-21.14-.63-28.41,1.59-26.82-2.09,1.6-.96,7.01-1.22,8.22-2.47,11.01-9.75,6.14-10.86,7.34-58.56,0,0,0-32.85,0-44.26,5.4-15.77-44.85-9.57-57.76-10.7-.01,18.14-.2,95.81.11,99.7,1.69,10.58,3.66,14.11,12.77,15.51,2.31.08,3.69.81,2.66,2.59-.26.21-7.35.28-26.74.28-23.92-.02-26.44-.06-26.8-.42-2.32-3.46,8.88-1.67,11.92-7.2,7.45-16.7,2.51-19.67,3.96-61.53,0-39.03-.05-48.48-.31-48.66-25.86-.39-54.57-.36-59.43,37.06ZM1024.77,204.38c-.79-1.67-.19-2.17,2.86-2.57,18.88-5.89,10.72-13.91,12.59-87.38-1.95-80.96,4.4-61.06-4.21-81.21-2.25-3.66-13.03-2.8-11.4-5.21.35-1.17,2.56-1.25,3.55-1.86,1.79-.75,3.53-1.16,5.19-1.97,8.53-3.48,17.68-7.16,26.26-11.01.64-.54,1.84-.72,2.22-.35.63-9.69.24,169.59.53,171.86.21,8.37,4.02,16.77,12.61,17.24,2.4.24,3.25.65,3.25,1.53,0,.25-.25.63-.56.84-.49.35-3.43.39-26.57.39-19.9,0-26.09-.07-26.32-.3ZM265.72,194.83c10.2-.87,21.8-7.46,26.25-16.5,0,0,0-20.69,0-20.69,0-19.75-.02-20.7-.45-20.94-.47-.25-4.07.47-7.55,1.5-16.4,4.49-43.08,9.29-45.86,29.88-2.96,17.45,10.68,29.63,27.61,26.75ZM1152.22,194.04c7.06-1.1,13.55-3.4,18.84-8.23,11.31-14.31,5.75-2.21,7.16-44.14-1.41-41.99,3.96-29.55-6.42-45.24-16.42-19.17-48.5-13-57.92,10.5-14.28,30.02-5.41,92.02,38.34,87.11ZM645.7,124.01c8.09-3.22.43-22.69-3.13-27.86-6.7-10.51-18.61-13.65-30.22-9.92-14.53,5.1-23.14,22.85-22.52,38.01.14.1,12.49.18,27.42.19,24.64,0,27.28-.04,28.45-.42ZM987.45,124.04c8.15-2.85,1.61-20.48-2.2-27.11-8.43-14.04-26.71-15.64-38.9-6.45-9.74,8.14-13.62,19.86-15.17,31.77-.06,3.69-.03,1.6,27.75,2.18,23.91,0,27.3-.05,28.52-.39Z"/>
  <path class="st0" d="M178.83,198.6c21.96,13.05,59.74,12.02,77.34,7.08"/>
</svg>