<svg xmlns="http://www.w3.org/2000/svg" width="1024" height="1024" viewBox="0 0 1024 1024" role="img" aria-labelledby="title desc">
  <title id="title">Gatherfield icon, inverted</title>
  <desc id="desc">The lowercase g from the Gatherfield serif wordmark, zoomed and panned so both bowls are cropped into view and the arrow sits near center.</desc>
  <defs><clipPath id="round"><rect width="1024" height="1024" rx="216"/></clipPath></defs>
  <g clip-path="url(#round)">
    <rect width="1024" height="1024" fill="#090909"/>
    <g transform="translate(512 512) scale(6.88) translate(-71 -186)">
      <path d="M127.72,210.61c-36.35-31.79-111.5,9.32-107.36-32.72,1.19,1.19,4.29,5.76,7.38,8.85.64.64,1.68-.49,1.35-1.34l-2.01-19.46c6.38-2.74,15.86,3.19,22.67,5.06,45.64,10.44,93.65-34.34,62.55-77.82-10.41-11.41-5.85-7.02,8.9-8.13,3.65-.27,7.99-1.05,9.24-4.93,1.55-4.58-1.25-14.11-6.24-11.25-22.92,13.19-20.25,7.57-30.3,7.22l-13.83-2.41c-50.73-13.58-103.02,38.99-61.78,83.12,2.76,2.67,5.33,4.69,5.12,7.03l-20.71,7.44c-1.01.15-1.34,1.96-.32,1.96,5.08,0,10.21,2.15,12.05,2.15-7.25,8.42-13.39,19.87-7.56,30.58,2.84,8.14,23.45,10.9,12.17,17.6-26.01,13.77-23.77,48.4-2.92,59.2,29.16,15.1,64.75,17.25,94.16,2.49,35.96-14.48,37.24-58.5,17.44-74.65ZM30,109.38c3.5-15.72,14.54-29.82,32.09-28.58,30.31-2.81,39.44,32.88,33.44,56.68-4.88,27.32-38.64,37.23-56.89,16.37-10.34-11.9-10.36-29.61-8.64-44.48ZM123.5,254.04c-8.88,49.51-110.03,47.52-103.36-7.43,1.63-10.33,3.82-20.22,19.14-25.22,21.92-7.15,52.86-5.13,72.07,6.49,8.82,5.33,13.96,16.04,12.15,26.16Z" fill="#ffffff" fill-rule="evenodd"/>
    </g>
  </g>
</svg>
